<svg width="49" height="37" viewBox="0 0 49 37" fill="none" xmlns="http://www.w3.org/2000/svg">
<g clip-path="url(#clip0_662_319)">
<path d="M11.9437 7.57355C5.74214 11.7361 0.459329 15.5517 0.229642 16.0142C-0.0766081 16.5345 0.0765169 17.3439 0.535892 17.8642C2.29683 20.0032 4.28745 19.2517 14.4703 12.4298L24.5 5.72355L34.4531 12.372C44.1765 18.9048 46.1671 19.8298 48.0812 18.3845C49.7656 17.1126 49.0765 15.8986 44.789 12.7189L40.6546 9.59699L40.425 5.55012L40.1953 1.44543H36.75C33.764 1.44543 33.3046 1.61887 33.075 2.71731C32.9218 3.46887 32.6156 4.04699 32.3859 4.04699C32.2328 4.04699 30.5484 3.12199 28.7875 2.02356C26.95 0.925117 24.9593 0.000118256 24.3468 0.000118256C23.7343 0.000118256 18.2218 3.41105 11.9437 7.57355ZM36.2906 8.7298C46.7796 15.7251 48.3875 17.2282 46.1671 17.7486C45.7078 17.8642 40.8078 14.9736 35.2953 11.3314C29.7828 7.63137 24.9593 4.62512 24.5 4.62512C24.0406 4.62512 19.2171 7.63137 13.7046 11.3314C4.28745 17.5751 2.44995 18.5001 1.76089 16.9392C1.45464 16.3032 23.4281 1.15637 24.5 1.15637C24.8062 1.15637 30.089 4.5673 36.2906 8.7298ZM39.0468 5.60793V8.90324L36.75 7.22668C35.2953 6.12824 34.4531 4.97199 34.4531 3.93137C34.4531 2.54387 34.7593 2.31262 36.75 2.31262C39.0468 2.31262 39.0468 2.31262 39.0468 5.60793Z" fill="#FEFFFF"/>
<path d="M22.969 12.5453C20.9783 13.1235 19.1409 14.5688 19.1409 15.6672C19.1409 16.2453 18.4518 16.8235 17.6096 17.0547C14.7768 17.7485 12.2502 20.6969 12.2502 23.4141V25.9578L6.35491 26.1313L0.38304 26.3047L0.153353 30.8141C-0.152897 36.8844 0.153353 37.1157 7.96273 36.8844L14.1643 36.711L14.394 33.4157C14.5471 30.9297 14.9299 30.0625 15.6955 30.0625C16.4612 30.0625 16.844 30.6407 16.844 31.7391C16.844 35.6703 20.4424 38.2141 23.3518 36.4219C24.2705 35.8438 24.7299 35.8438 25.6487 36.4219C28.558 38.2141 32.1565 35.6703 32.1565 31.7391C32.1565 30.6985 32.5393 30.0625 33.2283 30.0625C35.6018 30.0625 36.7502 28.3282 36.7502 24.5703C36.7502 21.5063 36.444 20.6391 34.8362 19.136C33.7643 18.211 32.1565 17.2282 31.3908 17.0547C30.5487 16.8235 29.8596 16.2453 29.8596 15.6672C29.8596 13.7594 25.5721 11.8516 22.969 12.5453ZM27.4096 14.5688C29.094 15.8407 28.4815 18.4422 26.4143 19.1938C23.5815 20.1766 20.6721 19.0203 20.6721 16.8813C20.6721 14.8578 21.8971 13.875 24.5002 13.875C25.5721 13.875 26.8737 14.1641 27.4096 14.5688ZM24.5002 20.8125C26.108 20.8125 27.4862 20.2922 28.7112 19.3094L30.5487 17.8063L32.9221 19.5407C34.9127 21.0438 35.219 21.7375 35.219 24.4547C35.219 28.0391 34.1471 29.0797 30.8549 28.7907C28.4049 28.5594 27.869 26.9985 30.2424 26.7094C33.6877 26.3047 33.7643 26.0157 31.0846 23.9922C28.0987 21.7375 28.0221 21.7375 26.0315 22.5469C25.1127 22.9516 23.9643 22.9516 22.5862 22.5469C20.8252 22.0266 20.2893 22.2 17.9158 23.9922C15.2362 26.0157 15.3127 26.3047 18.758 26.7094C21.1315 26.9985 20.5955 28.5594 18.1455 28.7907C14.8534 29.0797 13.7815 28.0391 13.7815 24.4547C13.7815 21.7375 14.0877 21.0438 16.0784 19.5407L18.4518 17.8063L20.2893 19.3094C21.5143 20.2922 22.8924 20.8125 24.5002 20.8125ZM23.5815 29.2532C23.7346 33.4157 23.5815 34.6875 22.5862 35.2657C20.5955 36.4797 19.1409 35.5547 19.1409 32.9532C19.1409 31.3922 19.6768 30.236 20.6721 29.4844C22.5862 28.0391 22.5862 27.461 20.6721 26.0157C18.8346 24.6282 19.3705 23.5875 21.6674 23.8188C23.1987 23.9922 23.3518 24.3391 23.5815 29.2532ZM29.4768 24.2813C29.7065 24.5703 29.2471 25.3219 28.3283 26.0157C26.4143 27.461 26.3377 28.675 28.3283 29.6C30.2424 30.525 30.5487 35.0922 28.7112 35.6125C26.1846 36.3641 25.2658 34.7453 25.2658 29.4844C25.2658 26.7672 25.4955 24.2813 25.8018 24.1078C26.5674 23.5297 28.9408 23.6453 29.4768 24.2813ZM3.98148 28.7328C4.21116 30.1782 4.51741 30.3516 7.27366 30.3516C10.0299 30.3516 10.3362 30.1782 10.5659 28.7328C10.719 27.8657 11.1018 27.1719 11.4846 27.1719C12.5565 27.1719 13.0159 28.8485 13.0159 32.4328V35.9016L7.50335 35.7282L1.91429 35.5547L1.6846 31.3344C1.53148 27.9813 1.6846 27.1719 2.60335 27.1719C3.29241 27.1719 3.82835 27.8078 3.98148 28.7328ZM9.18773 28.3282C9.18773 29.1953 8.65179 29.4844 7.27366 29.4844C5.89554 29.4844 5.3596 29.1953 5.3596 28.3282C5.3596 27.461 5.89554 27.1719 7.27366 27.1719C8.65179 27.1719 9.18773 27.461 9.18773 28.3282Z" fill="#FEFFFF"/>
<path d="M3.0625 33.4735C3.0625 33.8204 3.44531 34.2251 3.82812 34.3985C4.2875 34.572 4.59375 34.3407 4.59375 33.8782C4.59375 33.3579 4.2875 32.9532 3.82812 32.9532C3.44531 32.9532 3.0625 33.1845 3.0625 33.4735Z" fill="#FEFFFF"/>
<path d="M6.89062 33.8782C6.89062 34.3407 7.27344 34.572 7.65625 34.3985C8.11563 34.2251 8.42188 33.8204 8.42188 33.4735C8.42188 33.1845 8.11563 32.9532 7.65625 32.9532C7.27344 32.9532 6.89062 33.3579 6.89062 33.8782Z" fill="#FEFFFF"/>
<path d="M38.5109 28.4437C34.1469 33.5891 35.7547 37 42.4922 37C48.5406 37 50.6078 33.9359 47.3922 29.8312C45.9375 27.9234 45.4781 27.75 42.4922 27.75C40.6547 27.75 38.8937 28.0969 38.5109 28.4437ZM41.9562 29.9469C42.1094 30.3516 41.4969 30.6406 40.6547 30.6406C39.0469 30.6406 38.5875 30.0047 39.5828 29.2531C40.2719 28.7328 41.5734 29.1375 41.9562 29.9469ZM45.7844 29.9469C46.2437 30.9875 44.6359 30.7562 44.1 29.7156C43.7937 29.1375 44.0234 28.9062 44.5594 29.0219C45.0187 29.1375 45.6312 29.6 45.7844 29.9469ZM47.3156 33.0109C47.6984 34.4562 45.325 35.8438 42.4922 35.8438C39.889 35.8438 37.5156 34.6297 37.5156 33.3C37.5156 32.0281 38.5109 31.7391 42.875 31.9125C46.014 32.0281 47.1625 32.3172 47.3156 33.0109Z" fill="#FEFFFF"/>
</g>
<defs>
<clipPath id="clip0_662_319">
<rect width="49" height="37" fill="white"/>
</clipPath>
</defs>
</svg>
